Coordinates
version=1
nRows=16
nColumns=40
inDegrees=yes

Units are S.I. units (second, meters, Newtons, ...)
Angles are in degrees.

endheader
time	pelvis_tilt	pelvis_list	pelvis_rotation	pelvis_tx	pelvis_ty	pelvis_tz	hip_flexion_r	hip_adduction_r	hip_rotation_r	knee_angle_r	knee_angle_r_beta	ankle_angle_r	subtalar_angle_r	mtp_angle_r	hip_flexion_l	hip_adduction_l	hip_rotation_l	knee_angle_l	knee_angle_l_beta	ankle_angle_l	subtalar_angle_l	mtp_angle_l	lumbar_extension	lumbar_bending	lumbar_rotation	arm_flex_r	arm_add_r	arm_rot_r	elbow_flex_r	pro_sup_r	wrist_flex_r	wrist_dev_r	arm_flex_l	arm_add_l	arm_rot_l	elbow_flex_l	pro_sup_l	wrist_flex_l	wrist_dev_l
     55.33750000	     -5.72668062	     -4.72250311	      2.68404212	      1.06798489	      0.92204754	      0.46070765	      3.25228952	     -1.92467433	    -13.12193658	     28.00333847	     28.00333847	     14.17255438	      0.44183080	    -12.88908999	     27.71269997	     -4.39784520	     -0.69580307	     25.71176421	     25.71176421	      7.09843971	    -14.37565231	      7.04880925	     -9.37798640	      6.07502300	      3.42707840	     38.56028393	    -18.43891592	      1.51786136	    107.94707594	     44.14956816	      0.00000000	      0.00000000	    -10.02208861	     -9.99493022	     17.11040456	     31.77686931	     44.12580573	      0.00000000	      0.00000000
     55.34971429	     -5.72018387	     -4.62168043	      2.51919722	      1.06796651	      0.92316220	      0.45786874	      4.53734983	     -2.63853341	    -12.50934549	     31.00895099	     31.00895099	     12.16288058	     -1.11662913	    -15.99225190	     26.98585117	     -4.23598158	     -1.09911793	     25.45185406	     25.45185406	      7.50326252	    -14.08447584	      6.68151525	     -9.36205630	      6.07981926	      3.27710637	     36.68793199	    -18.25688656	      1.32148714	    106.55845139	     44.24879828	      0.00000000	      0.00000000	     -8.89870191	    -10.14534159	     16.78676398	     32.37112237	     44.26418617	      0.00000000	      0.00000000
     55.36192857	     -5.52494445	     -4.57881434	      2.39261415	      1.06801357	      0.92441402	      0.45509586	      5.78517520	     -3.36572146	    -12.12635607	     34.37936775	     34.37936775	     10.78242018	     -1.82411735	    -16.50503832	     26.06314051	     -4.11390699	     -1.35227682	     25.21685162	     25.21685162	      7.98942175	    -13.82816855	      6.46778972	     -9.61051398	      6.18792730	      3.06496548	     34.76389977	    -18.00921316	      1.56947223	    105.51595647	     44.26992168	      0.00000000	      0.00000000	     -7.66049301	    -10.33462734	     16.63425290	     32.84156288	     44.30828726	      0.00000000	      0.00000000
     55.37414286	     -5.64707332	     -4.31626871	      2.14870584	      1.06753614	      0.92494946	      0.45246750	      7.77439592	     -4.28868385	    -11.25941316	     38.25894700	     38.25894700	      9.00952708	     -3.20363241	    -17.21622546	     25.50270390	     -3.82384267	     -1.97342898	     24.97843495	     24.97843495	      8.29932081	    -13.52079587	      6.21456834	     -9.49890411	      6.00061336	      3.04772169	     32.68638825	    -17.96174452	      1.36648990	    103.72418671	     44.33026254	      0.00000000	      0.00000000	     -6.38000947	    -10.67493429	     16.38980784	     33.46032988	     44.36677216	      0.00000000	      0.00000000
     55.38635714	     -5.62812187	     -4.24071584	      1.95099268	      1.06708479	      0.92549125	      0.45009126	      9.62362341	     -4.88483503	    -10.35624179	     41.98928515	     41.98928515	      6.89852656	     -4.78688859	    -17.76493585	     24.85295598	     -3.71254373	     -2.34375671	     24.83500666	     24.83500666	      8.72434530	    -13.23884956	      5.86825134	     -9.49973345	      5.96510105	      3.00714594	     30.64005800	    -17.72402120	      0.93486457	    101.63240388	     44.40791690	      0.00000000	      0.00000000	     -5.02579474	    -11.00647592	     16.13267262	     34.18786251	     44.42832732	      0.00000000	      0.00000000
     55.39857143	     -5.54340759	     -4.14529521	      1.79415729	      1.06647279	      0.92594402	      0.44770666	     11.48167520	     -5.44555059	     -9.46050404	     45.69578564	     45.69578564	      4.65914081	     -6.37966314	    -17.97628937	     24.19248562	     -3.56726080	     -2.71162934	     24.77278542	     24.77278542	      9.17011377	    -12.99636696	      5.49862570	     -9.61814097	      5.99960074	      2.89938578	     28.58490530	    -17.36442975	      0.50827067	     99.42752702	     44.48808883	      0.00000000	      0.00000000	     -3.56468908	    -11.38702967	     15.87952958	     34.95570377	     44.48918728	      0.00000000	      0.00000000
     55.41078571	     -5.36438393	     -4.04977788	      1.67488186	      1.06571589	      0.92635958	      0.44538242	     13.29327235	     -5.96964274	     -8.64031832	     49.32971545	     49.32971545	      2.45948343	     -7.83736275	    -17.76967331	     23.49352917	     -3.40837039	     -2.95765126	     24.79691642	     24.79691642	      9.60244863	    -12.78163368	      5.15119097	     -9.82753467	      6.01818975	      2.74341233	     26.54112380	    -16.93673046	      0.23713649	     97.28461749	     44.55986827	      0.00000000	      0.00000000	     -1.94608494	    -11.79112083	     15.64317352	     35.72478723	     44.54716207	      0.00000000	      0.00000000
     55.42300000	     -5.42305302	     -4.07293204	      1.45987435	      1.06467374	      0.92640862	      0.44342536	     15.50555921	     -6.12910757	     -7.54113025	     52.89865463	     52.89865463	      0.27309641	     -9.80936608	    -16.81924630	     23.05585635	     -3.42635377	     -3.33143085	     24.77599885	     24.77599885	      9.98095472	    -12.51006856	      4.70329871	     -9.71695574	      6.14252964	      2.86621472	     24.63916788	    -16.65332670	     -0.90948920	     93.70928965	     44.70894168	      0.00000000	      0.00000000	     -0.49365598	    -12.16664826	     15.42020212	     36.68438756	     44.60795510	      0.00000000	      0.00000000
     55.43521429	     -5.17104264	     -3.95821047	      1.33215788	      1.06362420	      0.92677884	      0.44140665	     17.29076047	     -6.60820534	     -6.94619446	     56.18377941	     56.18377941	     -1.59027181	    -10.94636572	    -15.91765060	     22.35344915	     -3.26087672	     -3.55532257	     24.89602041	     24.89602041	     10.41263526	    -12.38619470	      4.37730113	    -10.09429521	      6.09987463	      2.55101220	     22.61387695	    -16.07463237	     -1.09189307	     91.46633894	     44.78070507	      0.00000000	      0.00000000	      1.28863463	    -12.67436202	     15.21847658	     37.42382022	     44.66243725	      0.00000000	      0.00000000
     55.44742857	     -5.09959734	     -3.89016142	      1.17694948	      1.06237997	      0.92686524	      0.43953020	     19.33544421	     -6.86437561	     -6.20220802	     59.28616477	     59.28616477	     -3.09202772	    -12.30410317	    -14.47642199	     21.81320387	     -3.14559861	     -3.82833589	     24.91876628	     24.91876628	     10.86658666	    -12.26706367	      4.05225883	    -10.16356030	      6.13021522	      2.56066247	     20.63211444	    -15.81859788	     -1.56682627	     88.44588816	     44.88732427	      0.00000000	      0.00000000	      3.06994164	    -13.10846822	     15.04159350	     38.24381782	     44.71525021	      0.00000000	      0.00000000
     55.45964286	     -5.07440448	     -3.91320680	      0.93807201	      1.06097973	      0.92700119	      0.43800791	     21.44790021	     -6.91910665	     -5.50071071	     62.11632669	     62.11632669	     -4.06117736	    -13.48208001	    -12.26164633	     21.31664996	     -3.16485955	     -4.11075426	     24.91799987	     24.91799987	     11.29902945	    -12.10784849	      3.71967573	    -10.19104809	      6.22201081	      2.75809574	     18.85810607	    -15.60487831	     -2.43214869	     84.40747982	     45.04113006	      0.00000000	      0.00000000	      4.88233806	    -13.44537860	     14.97616445	     39.10356154	     44.75981161	      0.00000000	      0.00000000
     55.47185714	     -4.87296055	     -3.98660271	      0.83687860	      1.05954708	      0.92746216	      0.43652780	     23.44849855	     -7.06815534	     -5.21985435	     64.99216530	     64.99216530	     -2.44644780	    -12.67879048	     -4.21126883	     20.65506233	     -3.21345645	     -4.27576491	     24.91948655	     24.91948655	     11.65402407	    -11.93006765	      3.29472074	    -10.38467285	      6.39128587	      1.97509368	     18.26464277	    -14.17434730	     -3.46371062	     78.44860653	     45.26765884	      0.00000000	      0.00000000	      6.37628864	    -14.39778206	     15.78094727	     40.19481491	     44.80331943	      0.00000000	      0.00000000
     55.48407143	     -4.79871220	     -4.00117124	      0.61073703	      1.05795938	      0.92783586	      0.43531887	     25.34162953	     -7.12517566	     -4.85041320	     66.94847477	     66.94847477	     -3.12954469	    -13.80906067	     -3.67147613	     20.06704734	     -3.22328413	     -4.53349793	     24.81545960	     24.81545960	     12.03313730	    -11.79152045	      3.13209331	    -10.58605277	      6.47952148	      2.26499427	     16.16321195	    -14.38540547	     -3.55961268	     75.62220905	     45.35431028	      0.00000000	      0.00000000	      8.44300219	    -14.73715515	     15.54425229	     41.00812195	     44.87090491	      0.00000000	      0.00000000
     55.49628571	     -4.63310274	     -4.11674358	      0.40019715	      1.05639246	      0.92850304	      0.43437141	     27.04728363	     -7.08440302	     -4.71324857	     68.50766697	     68.50766697	     -3.22341745	    -14.55307343	     -2.54172352	     19.37651066	     -3.36560102	     -4.77985659	     24.70775604	     24.70775604	     12.42643816	    -11.54451786	      2.92108624	    -10.82871289	      6.63769969	      2.30117855	     14.87013937	    -13.93909941	     -4.28425413	     70.55208067	     45.53691271	      0.00000000	      0.00000000	     10.48434549	    -15.18837817	     15.68798908	     41.48346824	     44.91536643	      0.00000000	      0.00000000
     55.50850000	     -4.55844842	     -4.18967936	      0.14383763	      1.05469925	      0.92916738	      0.43366602	     28.80931075	     -7.03143470	     -4.58378076	     69.66959513	     69.66959513	     -3.12625025	    -15.19465339	     -1.68073341	     18.70777159	     -3.46594150	     -5.07573183	     24.44480788	     24.44480788	     12.72415541	    -11.35385203	      2.78697914	    -11.00907854	      6.74352695	      2.37013399	     13.44865549	    -13.77134211	     -4.55476763	     66.02801879	     45.68343274	      0.00000000	      0.00000000	     12.43311439	    -15.68515516	     15.73046174	     42.31473268	     44.97233404	      0.00000000	      0.00000000
     55.52071429	     -4.51738941	     -4.27438174	     -0.13268346	      1.05295753	      0.92986564	      0.43313518	     30.52739103	     -6.90891768	     -4.49488974	     70.40811618	     70.40811618	     -2.79266412	    -15.66295008	     -0.90520302	     18.02173082	     -3.58549896	     -5.39201427	     24.08053310	     24.08053310	     13.00259073	    -11.09096351	      2.58287099	    -11.13319089	      6.85835034	      2.16133754	     12.56958327	    -13.37162260	     -4.83923379	     60.59265486	     45.85616644	      0.00000000	      0.00000000	     14.14299220	    -16.35259970	     15.84982030	     43.23995184	     45.03692252	      0.00000000	      0.00000000
